<?xml version="1.0" encoding="UTF-8"?>
<svg xmlns="http://www.w3.org/2000/svg" version="1.1" viewBox="0 0 415.5 181.3">
  <!-- Generator: Adobe Illustrator 29.2.1, SVG Export Plug-In . SVG Version: 2.1.0 Build 116)  -->
  <defs>
    <style>
      .st0, .st1 {
        opacity: .6;
      }

      .st0, .st1, .st2 {
        fill: none;
      }

      .st3 {
        fill: #a38f8f;
      }

      .st1 {
        stroke-width: 6px;
      }

      .st1, .st2 {
        stroke: #569aff;
        stroke-linecap: round;
        stroke-miterlimit: 10;
      }

      .st2 {
        opacity: .6;
        stroke-width: 4px;
      }
    </style>
  </defs>
  <g id="text">
    <path class="st3" d="M6.1,116.7c3.1-3.8,6.5-7.2,10.4-10.2,3.9-3.1,7.8-5.9,11.8-8.7,1-.8,2.1-1.5,3.2-2.1s2.2-1.3,3.2-1.9l1.9-4c1-2,2.1-3.9,3.3-5.7s2.6-3.6,4.1-5.3c.4-.4,1-1,1.8-1.7.8-.8,1.6-1.4,2.5-2.1.9-.6,1.8-1.1,2.7-1.3.9-.3,1.7-.2,2.3.2.8.5,1.2,1.2,1.1,2.2-.1,1-.7,1.7-1.7,2-2.9.8-5.4,2.4-7.5,4.9-2.1,2.5-4,5.2-5.6,8.1,2.5-1.3,5-2.4,7.5-3.5s5.1-1.8,7.8-2.4c2.2-.5,4.4-.7,6.7-.7s4.4.4,6.5,1.1c2,.7,5,5.5,5.4,3.3s2.7,3.4,3.4,5.8c.7,2.2.8,4.4.4,6.7-.4,2.2-1.1,4.4-2.1,6.6-1,2.1-2.2,4.2-3.6,6.1-1.4,2-2.7,3.7-4,5.3-6.2,7.4-13.3,13.9-21.2,19.7s-16.3,10.8-24.9,15.1l-2.1,1.1-.7,2.7-3,14.6c-.2.8-.4,1.7-.5,2.9-.1,1.2-.7,2-1.6,2.4-.9.4-1.7.2-2.4-.4-.7-.6-1-1.4-.8-2.2.6-3,1.4-6.1,2.2-9.1s1.8-6.1,2.6-9.2c-1.1.6-2.3,1.2-3.5,1.6-1.2.5-2.3,1-3.4,1.5-.8.3-1.6.6-2.5.9-.9.3-1.7,0-2.4-.8-.5-.6-.6-1.2-.4-2.1.3-.8.8-1.3,1.6-1.5,2-.5,4-1.1,6-1.9,2-.7,4-1.5,5.8-2.3l1.4-5.1c1.4-5,2.7-10,4-15,1.3-5,2.8-10,4.3-15,1-3.2,2.1-6.3,3.2-9.5,1.1-3.2,2.3-6.3,3.7-9.5-.9.4-1.7.9-2.5,1.4-.8.5-1.5,1-2.3,1.6-2,1.4-4,2.8-5.8,4.4-3.1,2.5-5.9,5.3-8.6,8.2-.3.4-.7.9-1.1,1.6s-.9,1.4-1.3,2.1c-.5.7-1,1.3-1.5,1.8-.6.6-1.1.8-1.6.8-1,0-1.8-.4-2.2-1.3-.4-.9-.3-1.7.3-2.4h0ZM35.4,99.7c-2,4.6-3.8,9.2-5.3,13.9s-3,9.5-4.4,14.3c-1.1,3.9-2.1,7.7-3,11.6-1,3.8-1.9,7.7-2.9,11.7,4.2-1.9,8.2-4,12.2-6.4,5.7-3.3,11.1-7,16.3-11.1,5.2-4.1,9.9-8.8,14-13.9,1-1.2,2.1-2.6,3.3-4.3,1.2-1.7,2.4-3.5,3.4-5.5,1-1.9,1.9-4,2.6-6.1s1-4,.9-5.9-.7-3.5-1.8-5c-1.1-1.5-2.8-2.7-5.3-3.4-2.9-.9-5.9-1.1-9-.6-3.2.5-6.2,1.3-9,2.3-1.8.7-3.6,1.4-5.3,2.2-1.7.7-3.4,1.6-5.2,2.5l-1.6,3.7h0Z"/>
    <path class="st3" d="M86.3,118c1.4-1.1,3-2.2,4.6-3.2s3.2-2,4.7-3c.9-.9,1.9-1.7,3.2-2.4,1.2-.7,2.4-.9,3.7-.6.8.3,1.2.9,1.3,1.7.6-.2,1.2-.3,1.9,0,1.4.8,2.1,1.9,2.2,3.5.1,1.6,0,3.2-.6,4.8.4.3,1.1.6,1.8.8,1.6.4,3.1.4,4.6-.2,1.5-.5,2.9-1.2,4.2-2.1.4-.2.9-.6,1.6-1.3.7-.7,1.4-1.3,2.2-1.9s1.5-1.1,2.2-1.4,1.2-.3,1.6.1c.5.6.6,1.1.4,1.7-.3.6-.7,1.1-1.3,1.6-.6.5-1.2,1-1.9,1.4s-1.1.8-1.3.9c-1.1.8-2.3,1.5-3.6,2.1-1.3.7-2.6,1.2-3.9,1.6-1.3.4-2.6.6-4,.6s-2.6-.3-3.8-.9l-1.9,3.6c-.7,1.2-1.6,2.4-2.5,3.7-1,1.3-2,2.4-3.2,3.4-1.2,1-2.5,1.8-3.9,2.4-1.4.6-2.9.8-4.3.6-1.9-.2-3.1-.9-3.7-2s-.9-2.4-.8-3.8c0-1.4.4-2.9.9-4.4s1.1-2.8,1.7-3.8l1.6-3c-1.7,1.2-3.3,2.5-4.9,3.8-1.6,1.3-3.1,2.8-4.6,4.2-.3.3-.6.6-1,1-.4.4-.8.8-1.2,1.2-.4.4-.8.7-1.2,1-.4.3-.8.3-1.2.2-.7-.2-1.1-.5-1.1-1.1s0-1.1.5-1.5l11.1-9.3h0ZM91.8,121.1c-.2.4-.6,1.2-1.2,2.4-.6,1.2-1.1,2.3-1.4,3.5s-.5,2.2-.3,3.1c.1.9.8,1.2,2,1.1,2.2-.3,4.2-1,6-2.1,1.8-1.1,3.2-2.5,4.4-4.4.5-.8.9-1.6,1.3-2.4.4-.7.7-1.5.9-2.4-.7-.9-1.3-2-1.7-3.2-.4-1.2-.4-2.4,0-3.5-2.2.8-4.2,1.9-5.8,3.3s-2.9,2.9-4.1,4.5h0Z"/>
    <path class="st3" d="M123.3,113c1.4-1.4,2.9-2.8,4.3-4.2s2.9-3,4.5-4.7c-.6-1.5-.6-3.1.1-4.8s1.9-2.8,3.6-3.2c1.2-.2,2.1.2,2.7,1.1s.7,1.9.4,3c-.4,1.2-1,2.2-1.9,3.2.7.2,1.4.1,2.2-.1,1.8-.3,3.5-1.2,5.1-2.5s3.1-2.7,4.3-4c1.3-.9,3-.3,3-.3,0,0,.8,1.7.4,3.1-.2.8-.4,1.8-.7,2.9-.2,1.2-.4,2.4-.4,3.5s0,2.3.3,3.2c.2,1,.8,1.7,1.6,2.1.6.4,1.6,0,3.2-1,1.6-1,3.7-2.5,6.3-4.6.9-.7,1.7-1.5,2.6-2.3s1.8-1.7,2.7-2.5c.2-.2.5-.4.9-.9s.8-.8,1.2-1c.4-.3.8-.4,1.2-.4.4,0,.7.4.9,1.1.1.4,0,.8-.2,1.3-.3.4-.6.8-1,1.2-.4.4-.8.7-1.2,1s-.8.5-1,.7l-4.5,3.9c-.8.8-1.7,1.7-2.8,2.8-1.1,1.1-2.3,2.2-3.6,3.1-1.2.9-2.5,1.6-3.8,1.9s-2.5.2-3.5-.7c-.6-.4-1-1-1.3-1.7-.3-.7-.5-1.4-.6-2.1,0-.7-.1-1.5-.1-2.2s0-1.5,0-2.2l-.2-4.3c-.4.2-1.2.7-2.3,1.4-1.2.7-2.5,1.3-3.9,1.9s-2.9,1-4.2,1.2-2.6,0-3.5-.7c-1.2,1.2-2.1,2.1-2.9,2.9-.8.8-1.5,1.6-2.3,2.4-.8.8-1.4,1.5-1.9,2-.4.3-.9.8-1.4,1.4-.5.7-1.1.9-1.7.7-.6-.2-1-.6-1.1-1.1s0-1.1.4-1.4h0Z"/>
    <path class="st3" d="M176.1,80.9c1.5-.4,3-.8,4.4-1.2,1.5-.5,2.9-1,4.3-1.6,1.2-4.2,2.6-8.6,4.1-13.2,1.5-4.6,3.6-8.7,6.1-12.3.5-.6,1.1-1.2,1.7-1.8.6-.6,1.2-1.1,1.9-1.4.8-.2,1.5,0,2.1.4s.9,1.2.9,2c0,1.8-.4,3.6-1.3,5.5-.9,1.9-1.7,3.7-2.3,5.2-.7,2-1.6,4-2.4,5.9-.9,2-1.8,3.9-2.8,5.8l6.7-3.9,11.1-7.3c.5-.4,1-.8,1.6-1.1.6-.3,1.2-.2,1.9.3.7.5,1,1.2,1,1.9,0,.8-.4,1.4-.9,1.8-3.4,2.4-7,4.6-10.9,6.6s-7.7,3.8-11.5,5.4l-1.6.9c-.7,1.2-1.5,2.4-2.3,3.6-.8,1.2-1.6,2.4-2.5,3.7-.3,1-.6,2-.7,2.9-.2,1-.3,2-.4,3,0,.3-.1,1-.2,2.1,0,1.1,0,2.2,0,3.3,0,1.1,0,2.1.2,3,0,.9.3,1.3.5,1.2,1.8,0,3.7-.8,5.5-2s3.4-2.2,4.8-3.1c1.7-1.2,3.4-2.4,5.1-3.6s3.4-2.5,5-3.9c.4-.3,1-.6,1.8-.9s1.2,0,1.5,1.2c.1.8-.2,1.4-1.1,2s-1.5,1.1-2,1.5l-7.8,5.8c-.9.7-2.1,1.7-3.6,2.9-1.5,1.3-3.1,2.4-4.8,3.3s-3.2,1.5-4.7,1.6-2.7-.7-3.6-2.5c-.7-1.8-.9-3.8-.6-5.9.3-2.1.7-4.4,1.2-6.8-3,3.7-6.3,7.1-9.8,10.2-.4.4-.8.6-1.2.5s-.7-.2-1-.5c-.3-.3-.4-.6-.4-1,0-.4.2-.8.5-1.2,2.5-2.2,4.8-4.4,7-6.8,2.2-2.3,4.3-4.8,6.3-7.5l.8-3.5c-1.2.4-2.5,1-3.9,1.7s-2.6.9-3.7.7c-.8-.2-1.2-.7-1.2-1.5,0-.8.4-1.3,1.1-1.5h0ZM194.8,62.6c.2-.7.4-1.4.6-2.2.2-.8.4-1.5.6-2.3-.6,1.1-1.1,2.1-1.5,3.1s-.9,1.8-1.2,2.5c-1,2.1-1.9,4.2-2.8,6.2-.9,2.1-1.6,4.2-2.2,6.5,2.7-4.4,4.9-9.1,6.6-13.8h0Z"/>
    <path class="st3" d="M206.5,88.3c3.1-2.7,6-5.6,8.8-8.8,2.7-3.1,5.3-6.3,7.7-9.6.7-3.4,1.3-6.8,1.9-10.3.6-3.5,1.4-6.9,2.3-10.3.3-1.4.6-3,1.1-4.7.4-1.7,1-3.3,1.7-4.9.7-1.6,1.6-3,2.7-4.3s2.4-2.1,4-2.6c1.7-.5,2.9-.4,3.5.4s.9,1.8.9,3.1-.2,2.7-.6,4c-.4,1.4-.7,2.5-1.1,3.2-1.1,3.6-2.5,7.2-4.2,10.6-1.6,3.4-3.5,6.8-5.6,9.9-.6,1.2-1.3,2.3-2.1,3.4-.7,1.1-1.4,2.2-2.1,3.3l-2.1,10.8c.6,2.4,1.6,3.9,2.9,4.5s2.8.5,4.6-.3c1.1-.6,2.1-1.2,3-1.9.9-.7,1.9-1.4,2.8-2.1.6-.5,1.3-1.3,2.1-2.3.8-1,1.6-1.6,2.4-1.8.7-.2,1.3,0,1.8.8.4.7.3,1.3-.3,1.9l-5,4.4c-1.5,1.2-3.2,2.4-5.1,3.6s-3.8,1.9-5.8,1.9c-1.7-.1-3.3-.8-4.8-2.2-.7,3.7-1.4,7.3-2.3,10.9-.9,3.6-1.8,7.2-2.7,10.8-.1.5-.4,1.4-.8,2.6-.4,1.3-.8,2.5-1.3,3.6s-1.1,2-1.8,2.6-1.5.4-2.4-.5c-.5-.5-.9-1.1-1.1-1.9s-.4-1.7-.5-2.6c0-.9-.1-1.8-.1-2.7v-2.3c0-1.9.4-4.1,1-6.6s1.4-5,2.5-7.6,2.3-5,3.7-7.3c1.4-2.3,2.9-4.3,4.6-5.8.2-.9.3-1.8.5-2.7.1-.8.3-1.7.5-2.6l-4.1,5.1c-1.2,1.3-2.4,2.7-3.7,4-1.2,1.3-2.5,2.7-3.8,3.9-.4.4-.9.8-1.5,1.4-.6.5-1.1.7-1.7.5-.5-.2-.8-.6-.9-1.2-.1-.6,0-1.1.4-1.5h0ZM212.4,111c1.6-3.3,2.9-6.8,4-10.5,1.1-3.7,2-7.4,2.9-11.1-2.4,3-4.3,6.5-5.8,10.5s-1.8,7.7-1.1,11.2h0ZM233.7,50.5c1.2-2.7,2.2-5.2,2.8-7.6.2-.7.4-1.5.6-2.5s.1-1.9,0-2.7c-.8.6-1.5,1.4-2.1,2.3-.6.9-1.1,1.8-1.5,2.7-1.1,2.1-2,4.2-2.7,6.4-.7,2.2-1.4,4.4-2,6.6-.3,1.3-.6,2.7-.9,3.9-.3,1.3-.6,2.6-.9,3.9,1.3-2.1,2.5-4.2,3.6-6.3s2.2-4.3,3.1-6.7h0Z"/>
    <path class="st3" d="M251.2,69c1.4-1.1,3-2.2,4.6-3.2s3.2-2,4.7-3c.9-.9,2-1.7,3.2-2.4s2.5-.9,3.7-.6c.8.3,1.2.9,1.3,1.8.5-.2,1.2-.3,1.9,0,1.4.8,2.1,1.9,2.2,3.5.1,1.6,0,3.2-.6,4.8.5.3,1.1.6,1.8.8,1.5.4,3.1.4,4.6-.2s2.9-1.2,4.2-2.1c.4-.2.9-.6,1.6-1.3.7-.7,1.4-1.3,2.2-1.9s1.5-1.1,2.2-1.5,1.2-.3,1.6.1c.5.6.6,1.1.4,1.7s-.7,1.1-1.3,1.6c-.6.5-1.2,1-1.9,1.4-.7.5-1.1.8-1.3.9-1.1.8-2.3,1.5-3.6,2.1-1.3.7-2.6,1.2-3.9,1.6-1.3.4-2.6.6-4,.6s-2.6-.3-3.8-.9l-1.9,3.6c-.7,1.2-1.5,2.4-2.5,3.7-1,1.3-2,2.4-3.2,3.4-1.2,1-2.5,1.8-3.9,2.4-1.4.6-2.9.8-4.4.6-1.9-.2-3.1-.9-3.7-2-.6-1.1-.9-2.4-.8-3.8.1-1.4.4-2.9.9-4.4s1.1-2.8,1.7-3.8l1.6-3c-1.7,1.2-3.3,2.5-4.9,3.8-1.6,1.3-3.1,2.8-4.6,4.2-.3.3-.6.6-1,1s-.8.8-1.2,1.2c-.4.4-.8.7-1.2,1-.4.3-.8.3-1.2.2-.7-.2-1.1-.5-1.1-1.1s0-1.1.5-1.5l11.1-9.3h0ZM256.7,72c-.2.4-.6,1.2-1.2,2.4s-1.1,2.3-1.4,3.5c-.4,1.2-.5,2.2-.3,3.1.1.9.8,1.3,2,1.1,2.2-.3,4.2-1,6-2.1,1.8-1.1,3.2-2.5,4.4-4.4.5-.8.9-1.6,1.3-2.4.4-.7.7-1.5.9-2.4-.7-.9-1.3-2-1.7-3.2-.4-1.2-.4-2.4,0-3.5-2.2.8-4.2,2-5.8,3.3-1.6,1.4-2.9,2.9-4.1,4.6h0Z"/>
    <path class="st3" d="M288.2,64c2.2-1.9,4.3-3.9,6.2-6,2-2.1,3.9-4.3,5.8-6.7.5-2.6,1.1-5.2,1.8-7.8.8-2.5,1.5-5,2.2-7.5.8-2.3,1.6-4.6,2.5-7,.8-2.3,1.7-4.7,2.6-7,.7-2,1.6-4.1,2.5-6.2.9-2.1,2.2-4,3.8-5.6.8-.8,1.8-1.4,3-2,1.2-.6,2.3-.3,3.2,1,.6.8.9,1.7.9,2.6,0,.9-.2,1.9-.5,3-.3,1-.7,2-1.1,3-.4,1-.8,1.8-1,2.5-1.9,5.6-4.2,11.1-7.1,16.3-2.8,5.2-6.1,10.3-9.7,15.1-.1,1.1-.3,2.3-.5,3.5-.2,1.3-.3,2.6-.4,3.9,0,1.3,0,2.6.2,3.9.2,1.2.6,2.3,1.1,3.3.9-.4,1.6-.8,2.3-1.1.6-.3,1.2-.5,1.8-.7s.9-.4,1-.5c2.3-1.2,4.5-2.6,6.6-4.1,2.1-1.5,4.2-3.1,6.2-4.8.6-.4,1.3-.9,2-1.7.8-.8,1.5-1,2.3-.8,1.1.4,1.4.9.9,1.7-.5.7-1,1.3-1.5,1.7l-12.7,9.5c-1.2.9-2.4,1.8-3.6,2.7s-2.4,1.6-3.8,2.1c-1.2.5-2.2.6-3.1.3-.9-.3-1.6-.9-2.1-1.6s-.9-1.7-1.1-2.7c-.2-1-.3-2.1-.4-3,0-2.1.1-4.3.5-6.5-2.7,3.2-5.6,6.3-8.8,9.2-.8.4-1.5.3-2.3-.2-.7-.5-.7-1.2.1-2h0ZM308.1,39.7c2.8-4.7,5.1-9.7,7.1-14.8,1-2.2,1.8-4.5,2.4-7.1,0-.5.1-1,.3-1.8.1-.7.2-1.4.3-2.2-1,.9-1.8,2-2.6,3.3-.7,1.3-1.3,2.4-1.8,3.2-1.3,2.4-2.5,4.9-3.5,7.5-1,2.6-2,5.2-3,7.9-.5,1.6-1,3.1-1.4,4.6-.4,1.5-.8,3-1.2,4.6.6-.8,1.1-1.7,1.7-2.6.6-.9,1.1-1.8,1.7-2.7h0Z"/>
    <path class="st3" d="M334.8,43.7c.3-.3.9-.8,2-1.7,1-.8,2.1-1.6,3.2-2.2,1.1-.6,2-.9,2.9-.9.9,0,1.4.6,1.5,2,0,.8,0,1.6-.4,2.5-.3.9-.5,1.8-.5,2.5-.2,1.2-.3,2.7-.2,4.3,0,1.7.5,2.9,1.6,3.7,1.4-.2,2.9-.9,4.5-1.9s2.9-1.9,4.2-2.8c.4-.3,1-.9,2-1.9,1-1,2-2,3-3,1.1-1,2.1-1.8,3.1-2.4s1.7-.7,2-.3c.5.5.5,1.2,0,2s-1.3,1.7-2.2,2.6c-1,.9-1.9,1.7-2.9,2.5s-1.7,1.3-1.9,1.6c-1.5,1.4-3.1,2.9-4.7,4.3-1.6,1.4-3.3,2.6-5.2,3.5-1.6.8-2.9.7-3.9,0-1-.8-1.6-1.9-2.1-3.5-.5-1.5-.7-3.2-.8-5.1,0-1.9,0-3.7,0-5.3-1.7,1.3-3.3,2.5-4.9,3.7-1.6,1.2-3.2,2.4-4.6,3.7-1.3,1.1-2.5,2.3-3.8,3.5-.8.5-1.6.5-2.4,0-.7-.5-.7-1.2.1-2l10.5-9.5h0ZM341.7,14.6c0-1.2.5-2.3,1.1-3.3.6-1,1.4-1.9,2.3-2.8.9-.8,1.9-1.5,3-2.2,1.1-.6,2.2-1.2,3.2-1.7,2.9-1,5.8-1.8,8.8-2.2.5-.2,1.1-.2,1.7-.2.7,0,1.1.3,1.2,1.1,0,.4,0,.8-.3,1.2-.2.4-.6.6-1,.6-2.5.2-5,.8-7.6,1.7s-4.6,2.3-6.3,4.3c-.7.7-1,1.6-1.1,2.5,0,.9-.4,1.7-.9,2.4-.6.9-1.5,1.2-2.6.8-1.1-.4-1.6-1.1-1.6-2.2h0Z"/>
    <path class="st3" d="M372.7,32.8c1.4-1.1,3-2.2,4.6-3.2s3.2-2,4.6-3c.9-.9,2-1.7,3.2-2.4,1.2-.7,2.5-.9,3.7-.6.8.3,1.2.9,1.3,1.7.5-.2,1.2-.3,1.9,0,1.4.8,2.1,1.9,2.2,3.5.1,1.6,0,3.2-.6,4.8.5.3,1.1.6,1.8.8,1.5.4,3.1.4,4.6-.2,1.5-.5,2.9-1.2,4.2-2,.4-.2.9-.6,1.6-1.3.7-.6,1.4-1.3,2.2-1.9s1.5-1.1,2.2-1.5,1.2-.3,1.6.1c.5.6.6,1.1.4,1.7s-.7,1.1-1.3,1.6c-.6.5-1.2,1-1.9,1.4-.7.5-1.1.8-1.3.9-1.1.8-2.3,1.5-3.6,2.1-1.3.7-2.6,1.2-3.9,1.5-1.3.4-2.6.6-4,.6s-2.6-.3-3.8-1l-1.9,3.6c-.7,1.2-1.5,2.4-2.5,3.7-1,1.3-2,2.4-3.2,3.4-1.2,1-2.5,1.8-3.9,2.4-1.4.6-2.9.8-4.4.6-1.9-.2-3.1-.9-3.7-2-.6-1.1-.9-2.4-.8-3.8.1-1.5.4-2.9,1-4.4.5-1.5,1.1-2.8,1.7-3.8l1.6-3c-1.7,1.2-3.3,2.5-4.9,3.8-1.6,1.3-3.1,2.8-4.6,4.2-.3.3-.6.6-1,1-.4.4-.8.8-1.2,1.2-.4.4-.8.7-1.2,1-.4.3-.8.3-1.2.2-.7-.2-1-.5-1.1-1.1,0-.6,0-1.1.5-1.5l11.1-9.3h0ZM378.1,35.9c-.2.4-.6,1.2-1.2,2.4s-1.1,2.3-1.4,3.5-.5,2.2-.3,3.1c.1.9.8,1.2,2,1.1,2.2-.3,4.2-1,6-2,1.8-1.1,3.2-2.5,4.4-4.4.5-.8.9-1.6,1.3-2.4.4-.7.7-1.5.9-2.4-.7-.9-1.3-2-1.7-3.2s-.4-2.4,0-3.5c-2.2.9-4.2,2-5.8,3.3s-3,2.9-4.1,4.5h0Z"/>
  </g>
  <g id="mask">
    <path class="st1" d="M5.7,119.1"/>
    <path class="st2" d="M6.8,118.8"/>
    <path class="st0" d="M6.8,119.9c14.1-21,51.9-40.7,63-31.3s1.5,23.4-5.4,31.3-21.1,21-33.9,27.7-23.1,11.2-27.5,12.8"/>
    <path class="st0" d="M54.1,75c-10.2,3.7-11.8,5.7-18.6,20s-21.3,66.1-23.4,83.2"/>
    <path class="st0" d="M75.7,129.4c10.6-11.4,26.1-19.7,26.1-19.7,0,0-11.7,10.6-13.5,15.1s-1.4,5.3-.3,7.8,7.9,2.5,13.3-4.8,3.6-14.4,2.5-17.3-3.6,8.7,4.5,11.4,18.3-10,24.5-16.5,4.4-5.9,4.8-7.2-1.7-1.6-1.7-1.6c0,0-1.8.2-2.6,3.2s.8,4.5,1.9,5.4,5.9-.7,8.9-2,4.1-2.6,6.6-6c-.4,4.2-.9,6.8-.9,8.7s-.2,4.4.5,6.7,4.4,2.1,6,.7c14.6-12.6,22.2-21.2,22.2-21.2,0,0,6.8-6.2,10.9-13.1s10-22.6,10.7-27.8c-3.9,3.2-4.9,4.4-7.4,9.3s-4.5,11.5-6,16.9-3.7,11.9-4.3,18.6,0,6.6.8,9.1,7.3-2.6,11.2-5.6c8.6-6.5,11.9-9.2,13-10.1s.5-.4.5-.4c0,0,9.9-8.4,15-15.7s8.7-12,10.6-16.8,5-11.6,5.7-16.2-.1-5.9-1.8-5.4-2.1-.5-3.8,2.8-2.6,3.6-3.7,8.6-2.3,6.7-3.7,15.4-2.4,12.8-4.5,22.5-6.4,27.5-8.4,31.6-2.6.3-2.6-1.7-.5-2.6,0-6.7,1.4-7,2.6-10,4-8.9,5.2-10.6,1.7-2,2.9-3.1c2.6,4.5,4.1,4.9,6.3,5s6.6-2.4,9.1-4.5,5.9-5.1,8.3-7.8,8-7.1,10.7-9.2c4.8-3.6,6.7-5.5,10.5-5.9-6.6,2-10.2,8.3-10.2,8.3,0,0-3.7,5.9-3.3,12.4s9.6,1,10.6.3,5.3-6.6,7-11.4,0-8.3,0-8.3c0,0-1.2-1.3-1.8.2s-1.4,1.2-.5,4.3,2.2,3.2,4.4,4.3,4.8,2.6,12.5-2.3,12.7-11.4,15.8-16.3,8.5-11.4,12.9-19.7,7.1-16.6,7.3-20.7-1.4-3.4-2.5-2.6-2.9,2.1-4,4.5-4.1,8.2-4.9,11.4-5.6,14.8-6.3,20-3.4,8.8-1.9,20.9,3,2.6,5.4,1.2,4.5-2.5,10.2-6.7,13-10.1,15.5-13,7.3-6.1,9.5-7.2c-.3,8.1-.9,11.7,1.1,15.7s11-5,11-5c0,0,7.4-6.4,12.1-10.8s12.6-12,21.4-15.6c-8.1,3.6-11.8,11.7-13.3,16.9s1.1,6.2,2,6.7,6.8-1.1,8.3-2.9c7.4-8.9,9.8-13.5,8.4-17.9s-2.8-.6-3-.6-1.2,2,.6,4.3,2.4,4,3.7,4.3,3.7,1.2,7.3-.7,7.9-3,10.7-7.6"/>
    <path class="st0" d="M175.1,82.8c12.3-2.8,30.9-12.4,40.1-19.4"/>
    <path class="st0" d="M363.1,3.3c-3.8-.4-10.7,2-10.7,2,0,0-7.9,1.8-9.1,11.5"/>
  </g>
</svg>